<?xml version="1.0" encoding="UTF-8"?>
<!DOCTYPE score-partwise PUBLIC "-//Recordare//DTD MusicXML 2.0 Partwise//EN"
  "http://www.musicxml.org/dtds/partwise.dtd">
<score-partwise version="2.0"><work><work-title>Copy of Ludum Dare</work-title></work><identification><creator type="composer"/><creator type="lyricist"/><rights/><encoding><software>Noteflight version 0.4</software><encoding-date>2020-04-19</encoding-date><supports attribute="new-system" element="print" type="no" value="no"/><supports attribute="new-page" element="print" type="no" value="no"/></encoding></identification><defaults><scaling><millimeters>2.1166666679999997</millimeters><tenths>10</tenths></scaling><page-layout><page-height>1742.0000000000002</page-height><page-width>1088.75</page-width><page-margins type="both"><left-margin>59.583333333333336</left-margin><right-margin>56.66666666666667</right-margin><top-margin>96.66666666666667</top-margin><bottom-margin>80</bottom-margin></page-margins></page-layout><system-layout><system-margins><left-margin>59.583333333333336</left-margin><right-margin>26.666666666666668</right-margin></system-margins><system-distance>92.5</system-distance><top-system-distance>145.83333333333334</top-system-distance></system-layout><staff-layout><staff-distance>55</staff-distance></staff-layout></defaults><credit page="1"><credit-type>title</credit-type><credit-words font-size="24" default-x="544.375" default-y="1632.0000000000002" justify="right" valign="top">Copy of Ludum Dare</credit-words></credit><part-list><score-part id="P1"><part-name>Piano</part-name><part-abbreviation>Pno.</part-abbreviation><score-instrument id="P1I1"><instrument-name>Piano</instrument-name><instrument-sound>keyboard.piano</instrument-sound></score-instrument><midi-instrument id="P1I1"><midi-channel>1</midi-channel><midi-program>1</midi-program></midi-instrument></score-part><score-part id="P2"><part-name>Drums</part-name><part-abbreviation>Dr.</part-abbreviation><score-instrument id="P2I1"><instrument-name>Drums</instrument-name><instrument-sound>drum.snare-drum</instrument-sound></score-instrument><midi-instrument id="P2I1"><midi-channel>2</midi-channel><midi-program>0</midi-program></midi-instrument></score-part></part-list><part id="P1"><measure number="1"><direction placement="above"><direction-type><metronome><beat-unit>eighth</beat-unit><per-minute>120</per-minute></metronome></direction-type><sound tempo="120"/></direction><direction placement="above"><direction-type><metronome><beat-unit>quarter</beat-unit><per-minute>120</per-minute></metronome></direction-type><sound tempo="120"/></direction><direction placement="below"><direction-type><dynamics placement="below"><mp/></dynamics></direction-type></direction><note><pitch><step>C</step><octave>4</octave></pitch><duration>32</duration><voice>1</voice><type>eighth</type><staff>1</staff></note><note><chord/><pitch><step>E</step><alter>-1</alter><octave>4</octave></pitch><duration>32</duration><voice>1</voice><type>eighth</type><staff>1</staff></note><note><chord/><pitch><step>E</step><alter>-1</alter><octave>5</octave></pitch><duration>32</duration><voice>1</voice><type>eighth</type><staff>1</staff></note><note><pitch><step>D</step><octave>4</octave></pitch><duration>64</duration><voice>1</voice><type>quarter</type><accidental>natural</accidental><staff>1</staff></note><note><chord/><pitch><step>F</step><octave>4</octave></pitch><duration>64</duration><voice>1</voice><type>quarter</type><staff>1</staff></note><note><chord/><pitch><step>F</step><octave>5</octave></pitch><duration>64</duration><voice>1</voice><type>quarter</type><staff>1</staff></note><direction placement="below"><direction-type><dynamics placement="below"><p/></dynamics></direction-type></direction><note><pitch><step>E</step><alter>-1</alter><octave>4</octave></pitch><duration>64</duration><voice>1</voice><type>quarter</type><staff>1</staff></note><note><chord/><pitch><step>G</step><octave>4</octave></pitch><duration>64</duration><voice>1</voice><type>quarter</type><staff>1</staff></note><note><chord/><pitch><step>G</step><octave>5</octave></pitch><duration>64</duration><voice>1</voice><type>quarter</type><staff>1</staff></note><note><pitch><step>C</step><octave>4</octave></pitch><duration>32</duration><voice>1</voice><type>eighth</type><staff>1</staff></note><note><chord/><pitch><step>E</step><alter>-1</alter><octave>4</octave></pitch><duration>32</duration><voice>1</voice><type>eighth</type><staff>1</staff></note><note><chord/><pitch><step>E</step><alter>-1</alter><octave>5</octave></pitch><duration>32</duration><voice>1</voice><type>eighth</type><staff>1</staff></note><note><pitch><step>C</step><octave>4</octave></pitch><duration>64</duration><voice>1</voice><type>quarter</type><staff>1</staff></note><note><chord/><pitch><step>E</step><alter>-1</alter><octave>4</octave></pitch><duration>64</duration><voice>1</voice><type>quarter</type><staff>1</staff></note><note><chord/><pitch><step>E</step><alter>-1</alter><octave>5</octave></pitch><duration>64</duration><voice>1</voice><type>quarter</type><staff>1</staff></note><backup><duration>256</duration></backup><attributes><divisions>64</divisions><key><fifths>-4</fifths><mode>dorian</mode></key><time print-object="yes"><beats>4</beats><beat-type>4</beat-type></time><staves>2</staves><clef number="1"><sign>G</sign><line>2</line></clef><clef number="2"><sign>F</sign><line>4</line></clef></attributes><direction placement="above"><direction-type><metronome><beat-unit>eighth</beat-unit><per-minute>120</per-minute></metronome></direction-type><sound tempo="120"/></direction><note><pitch><step>F</step><octave>3</octave></pitch><duration>64</duration><voice>3</voice><type>quarter</type><staff>2</staff></note><note><chord/><pitch><step>A</step><alter>-1</alter><octave>3</octave></pitch><duration>64</duration><voice>3</voice><type>quarter</type><staff>2</staff></note><note><rest/><duration>64</duration><voice>3</voice><type>quarter</type><staff>2</staff></note><note><pitch><step>F</step><octave>3</octave></pitch><duration>64</duration><voice>3</voice><type>quarter</type><staff>2</staff></note><note><chord/><pitch><step>A</step><alter>-1</alter><octave>3</octave></pitch><duration>64</duration><voice>3</voice><type>quarter</type><staff>2</staff></note><note><pitch><step>F</step><octave>3</octave></pitch><duration>64</duration><voice>3</voice><type>quarter</type><staff>2</staff></note><note><chord/><pitch><step>A</step><alter>-1</alter><octave>3</octave></pitch><duration>64</duration><voice>3</voice><type>quarter</type><staff>2</staff></note></measure><measure number="2"><direction placement="above"><direction-type><metronome><beat-unit>quarter</beat-unit><per-minute>120</per-minute></metronome></direction-type><sound tempo="120"/></direction><direction placement="below"><direction-type><dynamics placement="below"><mp/></dynamics></direction-type></direction><note><pitch><step>C</step><octave>4</octave></pitch><duration>64</duration><voice>1</voice><type>quarter</type><staff>1</staff></note><note><chord/><pitch><step>E</step><alter>-1</alter><octave>4</octave></pitch><duration>64</duration><voice>1</voice><type>quarter</type><staff>1</staff></note><direction placement="below"><direction-type><dynamics placement="below"><p/></dynamics></direction-type></direction><note><pitch><step>C</step><octave>4</octave></pitch><duration>128</duration><voice>1</voice><type>half</type><staff>1</staff></note><note><chord/><pitch><step>E</step><alter>-1</alter><octave>4</octave></pitch><duration>128</duration><voice>1</voice><type>half</type><staff>1</staff></note><note><pitch><step>C</step><octave>4</octave></pitch><duration>64</duration><voice>1</voice><type>quarter</type><staff>1</staff></note><note><chord/><pitch><step>F</step><octave>4</octave></pitch><duration>64</duration><voice>1</voice><type>quarter</type><staff>1</staff></note><backup><duration>256</duration></backup><attributes/><direction placement="above"><direction-type><metronome><beat-unit>quarter</beat-unit><per-minute>120</per-minute></metronome></direction-type><sound tempo="120"/></direction><note><pitch><step>F</step><octave>3</octave></pitch><duration>64</duration><voice>3</voice><type>quarter</type><staff>2</staff></note><note><chord/><pitch><step>A</step><alter>-1</alter><octave>3</octave></pitch><duration>64</duration><voice>3</voice><type>quarter</type><staff>2</staff></note><note><pitch><step>C</step><octave>3</octave></pitch><duration>32</duration><voice>3</voice><type>eighth</type><staff>2</staff><beam number="1">begin</beam></note><note><chord/><pitch><step>F</step><octave>3</octave></pitch><duration>32</duration><voice>3</voice><type>eighth</type><staff>2</staff><beam number="1">begin</beam></note><note><chord/><pitch><step>A</step><alter>-1</alter><octave>3</octave></pitch><duration>32</duration><voice>3</voice><type>eighth</type><staff>2</staff><beam number="1">begin</beam></note><note><pitch><step>A</step><alter>-1</alter><octave>2</octave></pitch><duration>32</duration><voice>3</voice><type>eighth</type><staff>2</staff><beam number="1">end</beam></note><note><chord/><pitch><step>D</step><octave>3</octave></pitch><duration>32</duration><voice>3</voice><type>eighth</type><accidental>natural</accidental><staff>2</staff><beam number="1">end</beam></note><note><chord/><pitch><step>A</step><alter>-1</alter><octave>3</octave></pitch><duration>32</duration><voice>3</voice><type>eighth</type><staff>2</staff><beam number="1">end</beam></note><note><pitch><step>C</step><octave>3</octave></pitch><duration>32</duration><voice>3</voice><type>eighth</type><staff>2</staff><beam number="1">begin</beam></note><note><pitch><step>F</step><octave>2</octave></pitch><duration>32</duration><voice>3</voice><type>eighth</type><staff>2</staff><beam number="1">end</beam></note><note><chord/><pitch><step>D</step><octave>3</octave></pitch><duration>32</duration><voice>3</voice><type>eighth</type><staff>2</staff><beam number="1">end</beam></note><note><chord/><pitch><step>A</step><alter>-1</alter><octave>3</octave></pitch><duration>32</duration><voice>3</voice><type>eighth</type><staff>2</staff><beam number="1">end</beam></note><note><pitch><step>E</step><alter>-1</alter><octave>2</octave></pitch><duration>64</duration><voice>3</voice><type>quarter</type><staff>2</staff></note><note><chord/><pitch><step>C</step><octave>3</octave></pitch><duration>64</duration><voice>3</voice><type>quarter</type><staff>2</staff></note><note><chord/><pitch><step>F</step><octave>3</octave></pitch><duration>64</duration><voice>3</voice><type>quarter</type><staff>2</staff></note><note><chord/><pitch><step>A</step><alter>-1</alter><octave>3</octave></pitch><duration>64</duration><voice>3</voice><type>quarter</type><staff>2</staff></note></measure><measure number="3"><direction placement="below"><direction-type><dynamics placement="below"><mp/></dynamics></direction-type></direction><note><pitch><step>D</step><octave>4</octave></pitch><duration>32</duration><voice>1</voice><type>eighth</type><accidental>natural</accidental><staff>1</staff></note><note><chord/><pitch><step>B</step><alter>-1</alter><octave>4</octave></pitch><duration>32</duration><voice>1</voice><type>eighth</type><staff>1</staff></note><direction placement="below"><direction-type><dynamics placement="below"><p/></dynamics></direction-type></direction><note><pitch><step>E</step><alter>-1</alter><octave>4</octave></pitch><duration>64</duration><voice>1</voice><type>quarter</type><staff>1</staff></note><note><chord/><pitch><step>C</step><octave>5</octave></pitch><duration>64</duration><voice>1</voice><type>quarter</type><staff>1</staff></note><note><pitch><step>F</step><octave>4</octave></pitch><duration>64</duration><voice>1</voice><type>quarter</type><staff>1</staff></note><note><chord/><pitch><step>A</step><alter>-1</alter><octave>4</octave></pitch><duration>64</duration><voice>1</voice><type>quarter</type><staff>1</staff></note><note><chord/><pitch><step>D</step><octave>5</octave></pitch><duration>64</duration><voice>1</voice><type>quarter</type><accidental>natural</accidental><staff>1</staff></note><note><pitch><step>D</step><octave>4</octave></pitch><duration>32</duration><voice>1</voice><type>eighth</type><staff>1</staff></note><note><chord/><pitch><step>F</step><octave>4</octave></pitch><duration>32</duration><voice>1</voice><type>eighth</type><staff>1</staff></note><note><pitch><step>D</step><octave>4</octave></pitch><duration>64</duration><voice>1</voice><type>quarter</type><staff>1</staff></note><note><chord/><pitch><step>F</step><octave>4</octave></pitch><duration>64</duration><voice>1</voice><type>quarter</type><staff>1</staff></note><note><chord/><pitch><step>B</step><alter>-1</alter><octave>4</octave></pitch><duration>64</duration><voice>1</voice><type>quarter</type><staff>1</staff></note><backup><duration>256</duration></backup><attributes/><note><pitch><step>B</step><alter>-1</alter><octave>2</octave></pitch><duration>128</duration><voice>3</voice><type>half</type><staff>2</staff></note><note><chord/><pitch><step>F</step><octave>3</octave></pitch><duration>128</duration><voice>3</voice><type>half</type><staff>2</staff></note><note><pitch><step>B</step><alter>-1</alter><octave>2</octave></pitch><duration>64</duration><voice>3</voice><type>quarter</type><staff>2</staff></note><note><chord/><pitch><step>B</step><alter>-1</alter><octave>3</octave></pitch><duration>64</duration><voice>3</voice><type>quarter</type><staff>2</staff></note><note><pitch><step>B</step><alter>-1</alter><octave>2</octave></pitch><duration>64</duration><voice>3</voice><type>quarter</type><staff>2</staff></note><note><chord/><pitch><step>F</step><octave>3</octave></pitch><duration>64</duration><voice>3</voice><type>quarter</type><staff>2</staff></note></measure><measure number="4"><direction placement="below"><direction-type><dynamics placement="below"><mp/></dynamics></direction-type></direction><note><pitch><step>D</step><octave>4</octave></pitch><duration>64</duration><voice>1</voice><type>quarter</type><accidental>natural</accidental><staff>1</staff></note><note><chord/><pitch><step>C</step><octave>5</octave></pitch><duration>64</duration><voice>1</voice><type>quarter</type><staff>1</staff></note><direction placement="below"><direction-type><dynamics placement="below"><p/></dynamics></direction-type></direction><note><pitch><step>B</step><alter>-1</alter><octave>4</octave></pitch><duration>96</duration><voice>1</voice><type>quarter</type><dot/><staff>1</staff></note><note><chord/><pitch><step>E</step><alter>-1</alter><octave>5</octave></pitch><duration>96</duration><voice>1</voice><type>quarter</type><dot/><staff>1</staff></note><note><pitch><step>D</step><octave>4</octave></pitch><duration>64</duration><voice>1</voice><type>quarter</type><staff>1</staff></note><note><chord/><pitch><step>B</step><alter>-1</alter><octave>4</octave></pitch><duration>64</duration><voice>1</voice><type>quarter</type><staff>1</staff></note><note><pitch><step>C</step><octave>5</octave></pitch><duration>32</duration><voice>1</voice><type>eighth</type><staff>1</staff></note><backup><duration>256</duration></backup><attributes/><note><pitch><step>B</step><alter>-1</alter><octave>2</octave></pitch><duration>64</duration><voice>3</voice><type>quarter</type><staff>2</staff></note><note><chord/><pitch><step>F</step><octave>3</octave></pitch><duration>64</duration><voice>3</voice><type>quarter</type><staff>2</staff></note><note><pitch><step>C</step><octave>3</octave></pitch><duration>32</duration><voice>3</voice><type>eighth</type><staff>2</staff><beam number="1">begin</beam></note><note><pitch><step>B</step><alter>-1</alter><octave>2</octave></pitch><duration>32</duration><voice>3</voice><type>eighth</type><staff>2</staff><beam number="1">end</beam></note><note><pitch><step>A</step><alter>-1</alter><octave>2</octave></pitch><duration>32</duration><voice>3</voice><type>eighth</type><staff>2</staff><beam number="1">begin</beam></note><note><pitch><step>F</step><octave>2</octave></pitch><duration>32</duration><tie type="start"/><voice>3</voice><type>eighth</type><staff>2</staff><beam number="1">end</beam><notations><tied type="start"/></notations></note><note><pitch><step>F</step><octave>2</octave></pitch><duration>64</duration><tie type="stop"/><voice>3</voice><type>quarter</type><staff>2</staff><notations><tied type="stop"/></notations></note><note><chord/><pitch><step>G</step><octave>3</octave></pitch><duration>64</duration><voice>3</voice><type>quarter</type><staff>2</staff></note></measure><measure number="5"><direction placement="below"><direction-type><dynamics placement="below"><mp/></dynamics></direction-type></direction><note><pitch><step>C</step><octave>4</octave></pitch><duration>32</duration><voice>1</voice><type>eighth</type><staff>1</staff></note><note><chord/><pitch><step>E</step><alter>-1</alter><octave>4</octave></pitch><duration>32</duration><voice>1</voice><type>eighth</type><staff>1</staff></note><note><chord/><pitch><step>E</step><alter>-1</alter><octave>5</octave></pitch><duration>32</duration><voice>1</voice><type>eighth</type><staff>1</staff></note><note><pitch><step>D</step><octave>4</octave></pitch><duration>64</duration><voice>1</voice><type>quarter</type><accidental>natural</accidental><staff>1</staff></note><note><chord/><pitch><step>F</step><octave>4</octave></pitch><duration>64</duration><voice>1</voice><type>quarter</type><staff>1</staff></note><note><chord/><pitch><step>F</step><octave>5</octave></pitch><duration>64</duration><voice>1</voice><type>quarter</type><staff>1</staff></note><direction placement="below"><direction-type><dynamics placement="below"><p/></dynamics></direction-type></direction><note><pitch><step>E</step><alter>-1</alter><octave>4</octave></pitch><duration>64</duration><voice>1</voice><type>quarter</type><staff>1</staff></note><note><chord/><pitch><step>G</step><octave>4</octave></pitch><duration>64</duration><voice>1</voice><type>quarter</type><staff>1</staff></note><note><chord/><pitch><step>G</step><octave>5</octave></pitch><duration>64</duration><voice>1</voice><type>quarter</type><staff>1</staff></note><note><pitch><step>C</step><octave>4</octave></pitch><duration>32</duration><voice>1</voice><type>eighth</type><staff>1</staff></note><note><chord/><pitch><step>E</step><alter>-1</alter><octave>4</octave></pitch><duration>32</duration><voice>1</voice><type>eighth</type><staff>1</staff></note><note><chord/><pitch><step>E</step><alter>-1</alter><octave>5</octave></pitch><duration>32</duration><voice>1</voice><type>eighth</type><staff>1</staff></note><note><pitch><step>C</step><octave>4</octave></pitch><duration>32</duration><tie type="start"/><voice>1</voice><type>eighth</type><staff>1</staff><beam number="1">begin</beam><notations><tied type="start"/></notations></note><note><chord/><pitch><step>E</step><alter>-1</alter><octave>4</octave></pitch><duration>32</duration><tie type="start"/><voice>1</voice><type>eighth</type><staff>1</staff><beam number="1">begin</beam><notations><tied type="start"/></notations></note><note><chord/><pitch><step>E</step><alter>-1</alter><octave>5</octave></pitch><duration>32</duration><voice>1</voice><type>eighth</type><staff>1</staff><beam number="1">begin</beam></note><note><pitch><step>C</step><octave>4</octave></pitch><duration>32</duration><tie type="stop"/><voice>1</voice><type>eighth</type><staff>1</staff><beam number="1">end</beam><notations><tied type="stop"/></notations></note><note><chord/><pitch><step>E</step><alter>-1</alter><octave>4</octave></pitch><duration>32</duration><tie type="stop"/><voice>1</voice><type>eighth</type><staff>1</staff><beam number="1">end</beam><notations><tied type="stop"/></notations></note><note><chord/><pitch><step>D</step><octave>5</octave></pitch><duration>32</duration><voice>1</voice><type>eighth</type><accidental>natural</accidental><staff>1</staff><beam number="1">end</beam></note><backup><duration>256</duration></backup><attributes/><note><pitch><step>F</step><octave>3</octave></pitch><duration>64</duration><voice>3</voice><type>quarter</type><staff>2</staff></note><note><chord/><pitch><step>A</step><alter>-1</alter><octave>3</octave></pitch><duration>64</duration><voice>3</voice><type>quarter</type><staff>2</staff></note><note><rest/><duration>64</duration><voice>3</voice><type>quarter</type><staff>2</staff></note><note><pitch><step>F</step><octave>3</octave></pitch><duration>64</duration><voice>3</voice><type>quarter</type><staff>2</staff></note><note><chord/><pitch><step>A</step><alter>-1</alter><octave>3</octave></pitch><duration>64</duration><voice>3</voice><type>quarter</type><staff>2</staff></note><note><pitch><step>F</step><octave>3</octave></pitch><duration>64</duration><tie type="start"/><voice>3</voice><type>quarter</type><staff>2</staff><notations><tied type="start"/></notations></note><note><chord/><pitch><step>A</step><alter>-1</alter><octave>3</octave></pitch><duration>64</duration><tie type="start"/><voice>3</voice><type>quarter</type><staff>2</staff><notations><tied type="start"/></notations></note></measure><measure number="6"><direction placement="below"><direction-type><dynamics placement="below"><mp/></dynamics></direction-type></direction><note><pitch><step>E</step><alter>-1</alter><octave>4</octave></pitch><duration>64</duration><voice>1</voice><type>quarter</type><staff>1</staff></note><note><chord/><pitch><step>C</step><octave>5</octave></pitch><duration>64</duration><voice>1</voice><type>quarter</type><staff>1</staff></note><direction placement="below"><direction-type><dynamics placement="below"><p/></dynamics></direction-type></direction><note><pitch><step>C</step><octave>4</octave></pitch><duration>128</duration><voice>1</voice><type>half</type><staff>1</staff></note><note><chord/><pitch><step>E</step><alter>-1</alter><octave>4</octave></pitch><duration>128</duration><voice>1</voice><type>half</type><staff>1</staff></note><note><pitch><step>C</step><octave>4</octave></pitch><duration>64</duration><voice>1</voice><type>quarter</type><staff>1</staff></note><note><chord/><pitch><step>F</step><octave>4</octave></pitch><duration>64</duration><voice>1</voice><type>quarter</type><staff>1</staff></note><backup><duration>256</duration></backup><attributes/><note><pitch><step>F</step><octave>3</octave></pitch><duration>64</duration><tie type="stop"/><voice>3</voice><type>quarter</type><staff>2</staff><notations><tied type="stop"/></notations></note><note><chord/><pitch><step>A</step><alter>-1</alter><octave>3</octave></pitch><duration>64</duration><tie type="stop"/><voice>3</voice><type>quarter</type><staff>2</staff><notations><tied type="stop"/></notations></note><note><pitch><step>C</step><octave>3</octave></pitch><duration>32</duration><voice>3</voice><type>eighth</type><staff>2</staff><beam number="1">begin</beam></note><note><chord/><pitch><step>F</step><octave>3</octave></pitch><duration>32</duration><voice>3</voice><type>eighth</type><staff>2</staff><beam number="1">begin</beam></note><note><chord/><pitch><step>A</step><alter>-1</alter><octave>3</octave></pitch><duration>32</duration><voice>3</voice><type>eighth</type><staff>2</staff><beam number="1">begin</beam></note><note><pitch><step>A</step><alter>-1</alter><octave>2</octave></pitch><duration>32</duration><voice>3</voice><type>eighth</type><staff>2</staff><beam number="1">end</beam></note><note><chord/><pitch><step>D</step><octave>3</octave></pitch><duration>32</duration><voice>3</voice><type>eighth</type><accidental>natural</accidental><staff>2</staff><beam number="1">end</beam></note><note><chord/><pitch><step>A</step><alter>-1</alter><octave>3</octave></pitch><duration>32</duration><voice>3</voice><type>eighth</type><staff>2</staff><beam number="1">end</beam></note><note><pitch><step>C</step><octave>3</octave></pitch><duration>32</duration><voice>3</voice><type>eighth</type><staff>2</staff><beam number="1">begin</beam></note><note><pitch><step>F</step><octave>2</octave></pitch><duration>32</duration><voice>3</voice><type>eighth</type><staff>2</staff><beam number="1">end</beam></note><note><chord/><pitch><step>D</step><octave>3</octave></pitch><duration>32</duration><voice>3</voice><type>eighth</type><staff>2</staff><beam number="1">end</beam></note><note><chord/><pitch><step>A</step><alter>-1</alter><octave>3</octave></pitch><duration>32</duration><voice>3</voice><type>eighth</type><staff>2</staff><beam number="1">end</beam></note><note><pitch><step>E</step><alter>-1</alter><octave>2</octave></pitch><duration>64</duration><voice>3</voice><type>quarter</type><staff>2</staff></note><note><chord/><pitch><step>C</step><octave>3</octave></pitch><duration>64</duration><voice>3</voice><type>quarter</type><staff>2</staff></note><note><chord/><pitch><step>F</step><octave>3</octave></pitch><duration>64</duration><voice>3</voice><type>quarter</type><staff>2</staff></note><note><chord/><pitch><step>A</step><alter>-1</alter><octave>3</octave></pitch><duration>64</duration><voice>3</voice><type>quarter</type><staff>2</staff></note></measure><measure number="7"><direction placement="above"><direction-type><metronome><beat-unit>quarter</beat-unit><per-minute>82</per-minute></metronome></direction-type><sound tempo="82"/></direction><direction placement="below"><direction-type><dynamics placement="below"><mp/></dynamics></direction-type></direction><note><pitch><step>B</step><alter>-1</alter><octave>3</octave></pitch><duration>64</duration><voice>1</voice><type>quarter</type><staff>1</staff></note><note><chord/><pitch><step>F</step><octave>4</octave></pitch><duration>64</duration><voice>1</voice><type>quarter</type><staff>1</staff></note><direction placement="below"><direction-type><dynamics placement="below"><p/></dynamics></direction-type></direction><note><pitch><step>B</step><alter>-1</alter><octave>4</octave></pitch><duration>32</duration><voice>1</voice><type>eighth</type><staff>1</staff><beam number="1">begin</beam></note><note><chord/><pitch><step>E</step><alter>-1</alter><octave>5</octave></pitch><duration>32</duration><voice>1</voice><type>eighth</type><staff>1</staff><beam number="1">begin</beam></note><note><pitch><step>A</step><alter>-1</alter><octave>4</octave></pitch><duration>32</duration><voice>1</voice><type>eighth</type><staff>1</staff><beam number="1">end</beam></note><note><chord/><pitch><step>E</step><alter>-1</alter><octave>5</octave></pitch><duration>32</duration><voice>1</voice><type>eighth</type><staff>1</staff><beam number="1">end</beam></note><note><pitch><step>G</step><octave>4</octave></pitch><duration>32</duration><voice>1</voice><type>eighth</type><staff>1</staff></note><note><chord/><pitch><step>E</step><alter>-1</alter><octave>5</octave></pitch><duration>32</duration><voice>1</voice><type>eighth</type><staff>1</staff></note><note><pitch><step>D</step><octave>4</octave></pitch><duration>64</duration><voice>1</voice><type>quarter</type><accidental>natural</accidental><staff>1</staff></note><note><chord/><pitch><step>F</step><octave>4</octave></pitch><duration>64</duration><voice>1</voice><type>quarter</type><staff>1</staff></note><note><pitch><step>C</step><octave>5</octave></pitch><duration>32</duration><voice>1</voice><type>eighth</type><staff>1</staff></note><backup><duration>256</duration></backup><attributes/><direction placement="above"><direction-type><metronome><beat-unit>quarter</beat-unit><per-minute>82</per-minute></metronome></direction-type><sound tempo="82"/></direction><note><pitch><step>B</step><alter>-1</alter><octave>2</octave></pitch><duration>128</duration><voice>3</voice><type>half</type><staff>2</staff></note><note><chord/><pitch><step>F</step><octave>3</octave></pitch><duration>128</duration><voice>3</voice><type>half</type><staff>2</staff></note><note><pitch><step>B</step><alter>-1</alter><octave>2</octave></pitch><duration>64</duration><voice>3</voice><type>quarter</type><staff>2</staff></note><note><chord/><pitch><step>B</step><alter>-1</alter><octave>3</octave></pitch><duration>64</duration><voice>3</voice><type>quarter</type><staff>2</staff></note><note><pitch><step>B</step><alter>-1</alter><octave>2</octave></pitch><duration>64</duration><voice>3</voice><type>quarter</type><staff>2</staff></note><note><chord/><pitch><step>F</step><octave>3</octave></pitch><duration>64</duration><voice>3</voice><type>quarter</type><staff>2</staff></note></measure><measure number="8"><print new-system="yes"/><direction placement="above"><direction-type><metronome><beat-unit>quarter</beat-unit><per-minute>120</per-minute></metronome></direction-type><sound tempo="120"/></direction><direction placement="below"><direction-type><dynamics placement="below"><mp/></dynamics></direction-type></direction><note><pitch><step>D</step><octave>4</octave></pitch><duration>32</duration><voice>1</voice><type>eighth</type><accidental>natural</accidental><staff>1</staff></note><note><chord/><pitch><step>B</step><alter>-1</alter><octave>4</octave></pitch><duration>32</duration><voice>1</voice><type>eighth</type><staff>1</staff></note><direction placement="below"><direction-type><dynamics placement="below"><p/></dynamics></direction-type></direction><note><pitch><step>E</step><alter>-1</alter><octave>4</octave></pitch><duration>64</duration><voice>1</voice><type>quarter</type><staff>1</staff></note><note><chord/><pitch><step>C</step><octave>5</octave></pitch><duration>64</duration><voice>1</voice><type>quarter</type><staff>1</staff></note><note><pitch><step>F</step><octave>4</octave></pitch><duration>64</duration><voice>1</voice><type>quarter</type><staff>1</staff></note><note><chord/><pitch><step>A</step><alter>-1</alter><octave>4</octave></pitch><duration>64</duration><voice>1</voice><type>quarter</type><staff>1</staff></note><note><chord/><pitch><step>D</step><octave>5</octave></pitch><duration>64</duration><voice>1</voice><type>quarter</type><accidental>natural</accidental><staff>1</staff></note><note><pitch><step>D</step><octave>4</octave></pitch><duration>64</duration><voice>1</voice><type>quarter</type><staff>1</staff></note><note><chord/><pitch><step>F</step><octave>4</octave></pitch><duration>64</duration><voice>1</voice><type>quarter</type><staff>1</staff></note><note><pitch><step>D</step><octave>4</octave></pitch><duration>32</duration><voice>1</voice><type>eighth</type><staff>1</staff></note><note><chord/><pitch><step>F</step><octave>4</octave></pitch><duration>32</duration><voice>1</voice><type>eighth</type><staff>1</staff></note><note><chord/><pitch><step>B</step><alter>-1</alter><octave>4</octave></pitch><duration>32</duration><voice>1</voice><type>eighth</type><staff>1</staff></note><backup><duration>256</duration></backup><attributes/><direction placement="above"><direction-type><metronome><beat-unit>quarter</beat-unit><per-minute>120</per-minute></metronome></direction-type><sound tempo="120"/></direction><note><pitch><step>B</step><alter>-1</alter><octave>2</octave></pitch><duration>64</duration><voice>3</voice><type>quarter</type><staff>2</staff></note><note><chord/><pitch><step>F</step><octave>3</octave></pitch><duration>64</duration><voice>3</voice><type>quarter</type><staff>2</staff></note><note><pitch><step>F</step><octave>2</octave></pitch><duration>32</duration><voice>3</voice><type>eighth</type><staff>2</staff><beam number="1">begin</beam></note><note><pitch><step>G</step><octave>2</octave></pitch><duration>32</duration><voice>3</voice><type>eighth</type><staff>2</staff><beam number="1">end</beam></note><note><pitch><step>A</step><alter>-1</alter><octave>2</octave></pitch><duration>32</duration><voice>3</voice><type>eighth</type><staff>2</staff><beam number="1">begin</beam></note><note><pitch><step>B</step><alter>-1</alter><octave>2</octave></pitch><duration>32</duration><tie type="start"/><voice>3</voice><type>eighth</type><staff>2</staff><beam number="1">end</beam><notations><tied type="start"/></notations></note><note><pitch><step>B</step><alter>-1</alter><octave>2</octave></pitch><duration>64</duration><tie type="stop"/><voice>3</voice><type>quarter</type><staff>2</staff><notations><tied type="stop"/></notations></note><note><chord/><pitch><step>G</step><octave>3</octave></pitch><duration>64</duration><voice>3</voice><type>quarter</type><staff>2</staff></note></measure><measure number="9"><direction placement="below"><direction-type><dynamics placement="below"><mf/></dynamics></direction-type></direction><note><pitch><step>E</step><alter>-1</alter><octave>4</octave></pitch><duration>32</duration><voice>1</voice><type>eighth</type><staff>1</staff></note><note><pitch><step>F</step><octave>4</octave></pitch><duration>64</duration><voice>1</voice><type>quarter</type><staff>1</staff></note><note><pitch><step>A</step><alter>-1</alter><octave>4</octave></pitch><duration>96</duration><voice>1</voice><type>quarter</type><dot/><staff>1</staff></note><note><pitch><step>E</step><alter>-1</alter><octave>4</octave></pitch><duration>64</duration><tie type="start"/><voice>1</voice><type>quarter</type><staff>1</staff><notations><tied type="start"/></notations></note><backup><duration>256</duration></backup><attributes/><direction placement="below"><direction-type><dynamics placement="below"><mp/></dynamics></direction-type></direction><note><pitch><step>C</step><octave>3</octave></pitch><duration>64</duration><voice>3</voice><type>quarter</type><staff>2</staff></note><note><chord/><pitch><step>F</step><octave>3</octave></pitch><duration>64</duration><voice>3</voice><type>quarter</type><staff>2</staff></note><note><chord/><pitch><step>C</step><octave>4</octave></pitch><duration>64</duration><voice>3</voice><type>quarter</type><staff>2</staff></note><direction placement="below"><direction-type><dynamics placement="below"><p/></dynamics></direction-type></direction><note><rest/><duration>32</duration><voice>3</voice><type>eighth</type><staff>2</staff></note><note><pitch><step>G</step><octave>2</octave></pitch><duration>64</duration><voice>3</voice><type>quarter</type><staff>2</staff></note><note><chord/><pitch><step>E</step><alter>-1</alter><octave>3</octave></pitch><duration>64</duration><voice>3</voice><type>quarter</type><staff>2</staff></note><note><chord/><pitch><step>G</step><octave>3</octave></pitch><duration>64</duration><voice>3</voice><type>quarter</type><staff>2</staff></note><note><pitch><step>E</step><alter>-1</alter><octave>2</octave></pitch><duration>32</duration><voice>3</voice><type>eighth</type><staff>2</staff></note><note><chord/><pitch><step>C</step><octave>3</octave></pitch><duration>32</duration><voice>3</voice><type>eighth</type><staff>2</staff></note><note><chord/><pitch><step>E</step><alter>-1</alter><octave>3</octave></pitch><duration>32</duration><voice>3</voice><type>eighth</type><staff>2</staff></note><note><pitch><step>E</step><alter>-1</alter><octave>2</octave></pitch><duration>64</duration><voice>3</voice><type>quarter</type><staff>2</staff></note><note><chord/><pitch><step>C</step><octave>3</octave></pitch><duration>64</duration><voice>3</voice><type>quarter</type><staff>2</staff></note><note><chord/><pitch><step>E</step><alter>-1</alter><octave>3</octave></pitch><duration>64</duration><voice>3</voice><type>quarter</type><staff>2</staff></note></measure><measure number="10"><direction placement="above"><direction-type><metronome><beat-unit>quarter</beat-unit><per-minute>82</per-minute></metronome></direction-type><sound tempo="82"/></direction><note><pitch><step>E</step><alter>-1</alter><octave>4</octave></pitch><duration>64</duration><tie type="stop"/><voice>1</voice><type>quarter</type><staff>1</staff><notations><tied type="stop"/></notations></note><note><pitch><step>B</step><alter>-1</alter><octave>3</octave></pitch><duration>32</duration><voice>1</voice><type>eighth</type><staff>1</staff><beam number="1">begin</beam></note><note><pitch><step>C</step><octave>4</octave></pitch><duration>32</duration><voice>1</voice><type>eighth</type><staff>1</staff><beam number="1">end</beam></note><note><pitch><step>E</step><alter>-1</alter><octave>4</octave></pitch><duration>128</duration><voice>1</voice><type>half</type><staff>1</staff></note><backup><duration>256</duration></backup><attributes/><direction placement="above"><direction-type><metronome><beat-unit>quarter</beat-unit><per-minute>82</per-minute></metronome></direction-type><sound tempo="82"/></direction><direction placement="below"><direction-type><dynamics placement="below"><mp/></dynamics></direction-type></direction><note><pitch><step>E</step><alter>-1</alter><octave>2</octave></pitch><duration>32</duration><voice>3</voice><type>eighth</type><staff>2</staff></note><note><chord/><pitch><step>C</step><octave>3</octave></pitch><duration>32</duration><voice>3</voice><type>eighth</type><staff>2</staff></note><note><chord/><pitch><step>E</step><alter>-1</alter><octave>3</octave></pitch><duration>32</duration><voice>3</voice><type>eighth</type><staff>2</staff></note><note><pitch><step>F</step><octave>2</octave></pitch><duration>64</duration><voice>3</voice><type>quarter</type><staff>2</staff></note><note><chord/><pitch><step>D</step><alter>-1</alter><octave>3</octave></pitch><duration>64</duration><voice>3</voice><type>quarter</type><staff>2</staff></note><note><chord/><pitch><step>F</step><octave>3</octave></pitch><duration>64</duration><voice>3</voice><type>quarter</type><staff>2</staff></note><direction placement="below"><direction-type><dynamics placement="below"><p/></dynamics></direction-type></direction><note><pitch><step>E</step><alter>-1</alter><octave>2</octave></pitch><duration>64</duration><voice>3</voice><type>quarter</type><staff>2</staff></note><note><chord/><pitch><step>G</step><octave>2</octave></pitch><duration>64</duration><voice>3</voice><type>quarter</type><staff>2</staff></note><note><chord/><pitch><step>G</step><octave>3</octave></pitch><duration>64</duration><voice>3</voice><type>quarter</type><staff>2</staff></note><note><pitch><step>E</step><alter>-1</alter><octave>2</octave></pitch><duration>32</duration><voice>3</voice><type>eighth</type><staff>2</staff></note><note><chord/><pitch><step>C</step><octave>3</octave></pitch><duration>32</duration><voice>3</voice><type>eighth</type><staff>2</staff></note><note><chord/><pitch><step>E</step><alter>-1</alter><octave>3</octave></pitch><duration>32</duration><voice>3</voice><type>eighth</type><staff>2</staff></note><note><pitch><step>E</step><alter>-1</alter><octave>2</octave></pitch><duration>64</duration><voice>3</voice><type>quarter</type><staff>2</staff></note><note><chord/><pitch><step>A</step><alter>-1</alter><octave>2</octave></pitch><duration>64</duration><voice>3</voice><type>quarter</type><staff>2</staff></note><note><chord/><pitch><step>C</step><octave>3</octave></pitch><duration>64</duration><voice>3</voice><type>quarter</type><staff>2</staff></note></measure><measure number="11"><note><pitch><step>B</step><alter>-1</alter><octave>3</octave></pitch><duration>32</duration><voice>1</voice><type>eighth</type><staff>1</staff></note><note><pitch><step>C</step><octave>4</octave></pitch><duration>64</duration><voice>1</voice><type>quarter</type><staff>1</staff></note><note><pitch><step>E</step><alter>-1</alter><octave>4</octave></pitch><duration>96</duration><voice>1</voice><type>quarter</type><dot/><staff>1</staff></note><note><pitch><step>B</step><alter>-1</alter><octave>3</octave></pitch><duration>64</duration><voice>1</voice><type>quarter</type><staff>1</staff></note><backup><duration>256</duration></backup><attributes/><direction placement="below"><direction-type><dynamics placement="below"><mp/></dynamics></direction-type></direction><note><pitch><step>B</step><alter>-1</alter><octave>2</octave></pitch><duration>128</duration><voice>3</voice><type>half</type><staff>2</staff></note><note><chord/><pitch><step>F</step><octave>3</octave></pitch><duration>128</duration><voice>3</voice><type>half</type><staff>2</staff></note><note><pitch><step>F</step><octave>3</octave></pitch><duration>64</duration><voice>3</voice><type>quarter</type><staff>2</staff></note><note><chord/><pitch><step>A</step><alter>-1</alter><octave>3</octave></pitch><duration>64</duration><voice>3</voice><type>quarter</type><staff>2</staff></note><direction placement="below"><direction-type><dynamics placement="below"><mp/></dynamics></direction-type></direction><note><pitch><step>B</step><alter>-1</alter><octave>2</octave></pitch><duration>64</duration><voice>3</voice><type>quarter</type><staff>2</staff></note><note><chord/><pitch><step>F</step><octave>3</octave></pitch><duration>64</duration><voice>3</voice><type>quarter</type><staff>2</staff></note><note><chord/><pitch><step>A</step><alter>-1</alter><octave>3</octave></pitch><duration>64</duration><voice>3</voice><type>quarter</type><staff>2</staff></note></measure><measure number="12"><print new-system="yes"/><direction placement="above"><direction-type><metronome><beat-unit>quarter</beat-unit><per-minute>120</per-minute></metronome></direction-type><sound tempo="120"/></direction><note><pitch><step>C</step><octave>4</octave></pitch><duration>64</duration><voice>1</voice><type>quarter</type><staff>1</staff></note><note><pitch><step>E</step><alter>-1</alter><octave>4</octave></pitch><duration>64</duration><voice>1</voice><type>quarter</type><staff>1</staff></note><note><pitch><step>F</step><octave>4</octave></pitch><duration>64</duration><voice>1</voice><type>quarter</type><staff>1</staff></note><note><pitch><step>A</step><alter>-1</alter><octave>4</octave></pitch><duration>64</duration><voice>1</voice><type>quarter</type><staff>1</staff></note><backup><duration>256</duration></backup><attributes/><direction placement="above"><direction-type><metronome><beat-unit>quarter</beat-unit><per-minute>120</per-minute></metronome></direction-type><sound tempo="120"/></direction><note><pitch><step>D</step><alter>-1</alter><octave>3</octave></pitch><duration>64</duration><voice>3</voice><type>quarter</type><staff>2</staff></note><note><chord/><pitch><step>F</step><octave>3</octave></pitch><duration>64</duration><voice>3</voice><type>quarter</type><staff>2</staff></note><note><pitch><step>C</step><octave>3</octave></pitch><duration>32</duration><voice>3</voice><type>eighth</type><staff>2</staff></note><note><pitch><step>B</step><alter>-1</alter><octave>2</octave></pitch><duration>96</duration><voice>3</voice><type>quarter</type><dot/><staff>2</staff></note><note><pitch><step>E</step><alter>-1</alter><octave>2</octave></pitch><duration>64</duration><voice>3</voice><type>quarter</type><staff>2</staff></note><note><chord/><pitch><step>C</step><octave>3</octave></pitch><duration>64</duration><voice>3</voice><type>quarter</type><staff>2</staff></note><note><chord/><pitch><step>F</step><octave>3</octave></pitch><duration>64</duration><voice>3</voice><type>quarter</type><staff>2</staff></note><note><chord/><pitch><step>A</step><alter>-1</alter><octave>3</octave></pitch><duration>64</duration><voice>3</voice><type>quarter</type><staff>2</staff></note></measure><measure number="13"><direction placement="above"><direction-type><metronome><beat-unit>quarter</beat-unit><per-minute>82</per-minute></metronome></direction-type><sound tempo="82"/></direction><note><rest/><duration>64</duration><voice>1</voice><type>quarter</type><staff>1</staff></note><note><pitch><step>B</step><alter>-1</alter><octave>3</octave></pitch><duration>64</duration><voice>1</voice><type>quarter</type><staff>1</staff></note><note><pitch><step>F</step><octave>5</octave></pitch><duration>128</duration><voice>1</voice><type>half</type><staff>1</staff></note><backup><duration>256</duration></backup><attributes/><direction placement="above"><direction-type><metronome><beat-unit>quarter</beat-unit><per-minute>82</per-minute></metronome></direction-type><sound tempo="82"/></direction><direction placement="below"><direction-type><dynamics placement="below"><mf/></dynamics></direction-type></direction><note><pitch><step>F</step><octave>3</octave></pitch><duration>64</duration><voice>3</voice><type>quarter</type><staff>2</staff></note><direction placement="below"><direction-type><dynamics placement="below"><mp/></dynamics></direction-type></direction><note><pitch><step>B</step><alter>-1</alter><octave>2</octave></pitch><duration>64</duration><voice>3</voice><type>quarter</type><staff>2</staff></note><note><pitch><step>B</step><alter>-1</alter><octave>2</octave></pitch><duration>64</duration><voice>3</voice><type>quarter</type><staff>2</staff></note><note><chord/><pitch><step>B</step><alter>-1</alter><octave>3</octave></pitch><duration>64</duration><voice>3</voice><type>quarter</type><staff>2</staff></note><note><pitch><step>B</step><alter>-1</alter><octave>2</octave></pitch><duration>64</duration><voice>3</voice><type>quarter</type><staff>2</staff></note><note><chord/><pitch><step>F</step><octave>3</octave></pitch><duration>64</duration><voice>3</voice><type>quarter</type><staff>2</staff></note></measure><measure number="14"><note><pitch><step>A</step><alter>-1</alter><octave>5</octave></pitch><duration>32</duration><voice>1</voice><type>eighth</type><staff>1</staff></note><note><pitch><step>B</step><alter>-1</alter><octave>5</octave></pitch><duration>64</duration><voice>1</voice><type>quarter</type><staff>1</staff></note><note><pitch><step>A</step><alter>-1</alter><octave>5</octave></pitch><duration>32</duration><voice>1</voice><type>eighth</type><staff>1</staff></note><note><pitch><step>B</step><alter>-1</alter><octave>5</octave></pitch><duration>32</duration><voice>1</voice><type>eighth</type><staff>1</staff><beam number="1">begin</beam></note><note><pitch><step>B</step><alter>-1</alter><octave>5</octave></pitch><duration>32</duration><voice>1</voice><type>eighth</type><staff>1</staff><beam number="1">end</beam></note><note><pitch><step>B</step><alter>-1</alter><octave>5</octave></pitch><duration>64</duration><voice>1</voice><type>quarter</type><staff>1</staff></note><backup><duration>256</duration></backup><attributes/><note><pitch><step>B</step><alter>-1</alter><octave>2</octave></pitch><duration>64</duration><voice>3</voice><type>quarter</type><staff>2</staff></note><note><chord/><pitch><step>F</step><octave>3</octave></pitch><duration>64</duration><voice>3</voice><type>quarter</type><staff>2</staff></note><note><pitch><step>F</step><octave>2</octave></pitch><duration>64</duration><voice>3</voice><type>quarter</type><staff>2</staff></note><note><chord/><pitch><step>F</step><octave>3</octave></pitch><duration>64</duration><voice>3</voice><type>quarter</type><staff>2</staff></note><note><pitch><step>B</step><alter>-1</alter><octave>2</octave></pitch><duration>64</duration><voice>3</voice><type>quarter</type><staff>2</staff></note><note><chord/><pitch><step>F</step><octave>3</octave></pitch><duration>64</duration><voice>3</voice><type>quarter</type><staff>2</staff></note><note><pitch><step>F</step><octave>2</octave></pitch><duration>64</duration><voice>3</voice><type>quarter</type><staff>2</staff></note><note><chord/><pitch><step>D</step><alter>-1</alter><octave>3</octave></pitch><duration>64</duration><voice>3</voice><type>quarter</type><staff>2</staff></note></measure><measure number="15"><direction placement="above"><direction-type><metronome><beat-unit>quarter</beat-unit><per-minute>120</per-minute></metronome></direction-type><sound tempo="120"/></direction><note><rest/><duration>64</duration><voice>1</voice><type>quarter</type><staff>1</staff></note><note><pitch><step>B</step><alter>-1</alter><octave>3</octave></pitch><duration>64</duration><voice>1</voice><type>quarter</type><staff>1</staff></note><note><pitch><step>F</step><octave>5</octave></pitch><duration>128</duration><voice>1</voice><type>half</type><staff>1</staff></note><backup><duration>256</duration></backup><attributes/><direction placement="above"><direction-type><metronome><beat-unit>quarter</beat-unit><per-minute>120</per-minute></metronome></direction-type><sound tempo="120"/></direction><direction placement="below"><direction-type><dynamics placement="below"><mf/></dynamics></direction-type></direction><note><pitch><step>F</step><octave>3</octave></pitch><duration>64</duration><voice>3</voice><type>quarter</type><staff>2</staff></note><direction placement="below"><direction-type><dynamics placement="below"><mp/></dynamics></direction-type></direction><note><pitch><step>B</step><alter>-1</alter><octave>2</octave></pitch><duration>64</duration><voice>3</voice><type>quarter</type><staff>2</staff></note><note><pitch><step>B</step><alter>-1</alter><octave>2</octave></pitch><duration>64</duration><voice>3</voice><type>quarter</type><staff>2</staff></note><note><chord/><pitch><step>B</step><alter>-1</alter><octave>3</octave></pitch><duration>64</duration><voice>3</voice><type>quarter</type><staff>2</staff></note><note><pitch><step>B</step><alter>-1</alter><octave>2</octave></pitch><duration>64</duration><voice>3</voice><type>quarter</type><staff>2</staff></note><note><chord/><pitch><step>F</step><octave>3</octave></pitch><duration>64</duration><voice>3</voice><type>quarter</type><staff>2</staff></note></measure><measure number="16"><direction placement="above"><direction-type><metronome><beat-unit>quarter</beat-unit><per-minute>82</per-minute></metronome></direction-type><sound tempo="82"/></direction><note><pitch><step>A</step><alter>-1</alter><octave>5</octave></pitch><duration>32</duration><voice>1</voice><type>eighth</type><staff>1</staff></note><note><pitch><step>B</step><alter>-1</alter><octave>5</octave></pitch><duration>64</duration><voice>1</voice><type>quarter</type><staff>1</staff></note><note><pitch><step>A</step><alter>-1</alter><octave>5</octave></pitch><duration>32</duration><voice>1</voice><type>eighth</type><staff>1</staff></note><note><pitch><step>B</step><alter>-1</alter><octave>5</octave></pitch><duration>32</duration><voice>1</voice><type>eighth</type><staff>1</staff><beam number="1">begin</beam></note><note><pitch><step>B</step><alter>-1</alter><octave>5</octave></pitch><duration>32</duration><voice>1</voice><type>eighth</type><staff>1</staff><beam number="1">end</beam></note><note><pitch><step>B</step><alter>-1</alter><octave>5</octave></pitch><duration>64</duration><voice>1</voice><type>quarter</type><staff>1</staff></note><backup><duration>256</duration></backup><attributes/><direction placement="above"><direction-type><metronome><beat-unit>quarter</beat-unit><per-minute>82</per-minute></metronome></direction-type><sound tempo="82"/></direction><note><pitch><step>B</step><alter>-1</alter><octave>2</octave></pitch><duration>64</duration><voice>3</voice><type>quarter</type><staff>2</staff></note><note><chord/><pitch><step>F</step><octave>3</octave></pitch><duration>64</duration><voice>3</voice><type>quarter</type><staff>2</staff></note><note><pitch><step>B</step><alter>-1</alter><octave>2</octave></pitch><duration>64</duration><voice>3</voice><type>quarter</type><staff>2</staff></note><note><chord/><pitch><step>F</step><octave>3</octave></pitch><duration>64</duration><voice>3</voice><type>quarter</type><staff>2</staff></note><note><pitch><step>A</step><alter>-1</alter><octave>2</octave></pitch><duration>32</duration><voice>3</voice><type>eighth</type><staff>2</staff><beam number="1">begin</beam></note><note><pitch><step>F</step><octave>2</octave></pitch><duration>32</duration><tie type="start"/><voice>3</voice><type>eighth</type><staff>2</staff><beam number="1">end</beam><notations><tied type="start"/></notations></note><note><pitch><step>F</step><octave>2</octave></pitch><duration>64</duration><tie type="stop"/><voice>3</voice><type>quarter</type><staff>2</staff><notations><tied type="stop"/></notations></note><note><chord/><pitch><step>B</step><alter>-1</alter><octave>2</octave></pitch><duration>64</duration><voice>3</voice><type>quarter</type><staff>2</staff></note><note><chord/><pitch><step>D</step><alter>-1</alter><octave>3</octave></pitch><duration>64</duration><voice>3</voice><type>quarter</type><staff>2</staff></note></measure><measure number="17"><print new-system="yes"/><note><rest/><duration>256</duration><voice>1</voice><type>whole</type><staff>1</staff></note><backup><duration>256</duration></backup><attributes/><note><rest/><duration>256</duration><voice>3</voice><type>whole</type><staff>2</staff></note><barline location="right"><bar-style>light-heavy</bar-style></barline></measure><measure number="18"><direction placement="above"><direction-type><metronome><beat-unit>quarter</beat-unit><per-minute>120</per-minute></metronome></direction-type><sound tempo="120"/></direction><direction placement="above"><direction-type><metronome><beat-unit>quarter</beat-unit><per-minute>120</per-minute></metronome></direction-type><sound tempo="120"/></direction><note><rest/><duration>256</duration><voice>1</voice><type>whole</type><staff>1</staff></note><backup><duration>256</duration></backup><attributes/><direction placement="above"><direction-type><metronome><beat-unit>quarter</beat-unit><per-minute>120</per-minute></metronome></direction-type><sound tempo="120"/></direction><note><rest/><duration>256</duration><voice>3</voice><type>whole</type><staff>2</staff></note><barline location="right"><bar-style>light-heavy</bar-style></barline></measure></part><part id="P2"><measure number="1"><attributes><divisions>64</divisions><time print-object="yes"><beats>4</beats><beat-type>4</beat-type></time><clef number="1"><sign>percussion</sign></clef></attributes><direction placement="above"><direction-type><metronome><beat-unit>eighth</beat-unit><per-minute>120</per-minute></metronome></direction-type><sound tempo="120"/></direction><note><unpitched><display-step>E</display-step><display-octave>7</display-octave></unpitched><duration>64</duration><voice>1</voice><type>quarter</type><notehead>x</notehead></note><note><unpitched><display-step>E</display-step><display-octave>7</display-octave></unpitched><duration>64</duration><voice>1</voice><type>quarter</type><notehead>x</notehead></note><note><unpitched><display-step>E</display-step><display-octave>7</display-octave></unpitched><duration>64</duration><voice>1</voice><type>quarter</type><notehead>x</notehead></note><note><unpitched><display-step>E</display-step><display-octave>7</display-octave></unpitched><duration>64</duration><voice>1</voice><type>quarter</type><notehead>x</notehead></note></measure><measure number="2"><attributes/><direction placement="above"><direction-type><metronome><beat-unit>quarter</beat-unit><per-minute>120</per-minute></metronome></direction-type><sound tempo="120"/></direction><note><unpitched><display-step>E</display-step><display-octave>7</display-octave></unpitched><duration>64</duration><voice>1</voice><type>quarter</type><notehead>x</notehead></note><note><unpitched><display-step>E</display-step><display-octave>7</display-octave></unpitched><duration>64</duration><voice>1</voice><type>quarter</type><notehead>x</notehead></note><note><unpitched><display-step>E</display-step><display-octave>7</display-octave></unpitched><duration>64</duration><voice>1</voice><type>quarter</type><notehead>x</notehead></note><note><unpitched><display-step>E</display-step><display-octave>7</display-octave></unpitched><duration>64</duration><voice>1</voice><type>quarter</type><notehead>x</notehead></note></measure><measure number="3"><attributes/><note><unpitched><display-step>E</display-step><display-octave>7</display-octave></unpitched><duration>64</duration><voice>1</voice><type>quarter</type><notehead>x</notehead></note><note><unpitched><display-step>E</display-step><display-octave>7</display-octave></unpitched><duration>64</duration><voice>1</voice><type>quarter</type><notehead>x</notehead></note><note><unpitched><display-step>E</display-step><display-octave>7</display-octave></unpitched><duration>64</duration><voice>1</voice><type>quarter</type><notehead>x</notehead></note><note><unpitched><display-step>E</display-step><display-octave>7</display-octave></unpitched><duration>64</duration><voice>1</voice><type>quarter</type><notehead>x</notehead></note></measure><measure number="4"><attributes/><note><unpitched><display-step>E</display-step><display-octave>7</display-octave></unpitched><duration>64</duration><voice>1</voice><type>quarter</type><notehead>x</notehead></note><note><unpitched><display-step>E</display-step><display-octave>7</display-octave></unpitched><duration>64</duration><voice>1</voice><type>quarter</type><notehead>x</notehead></note><note><unpitched><display-step>E</display-step><display-octave>7</display-octave></unpitched><duration>64</duration><voice>1</voice><type>quarter</type><notehead>x</notehead></note><note><unpitched><display-step>E</display-step><display-octave>7</display-octave></unpitched><duration>64</duration><voice>1</voice><type>quarter</type><notehead>x</notehead></note></measure><measure number="5"><attributes/><note><unpitched><display-step>E</display-step><display-octave>7</display-octave></unpitched><duration>64</duration><voice>1</voice><type>quarter</type><notehead>x</notehead></note><note><unpitched><display-step>E</display-step><display-octave>7</display-octave></unpitched><duration>64</duration><voice>1</voice><type>quarter</type><notehead>x</notehead></note><note><unpitched><display-step>E</display-step><display-octave>7</display-octave></unpitched><duration>64</duration><voice>1</voice><type>quarter</type><notehead>x</notehead></note><note><unpitched><display-step>E</display-step><display-octave>7</display-octave></unpitched><duration>64</duration><voice>1</voice><type>quarter</type><notehead>x</notehead></note></measure><measure number="6"><attributes/><note><unpitched><display-step>E</display-step><display-octave>7</display-octave></unpitched><duration>64</duration><voice>1</voice><type>quarter</type><notehead>x</notehead></note><note><unpitched><display-step>E</display-step><display-octave>7</display-octave></unpitched><duration>64</duration><voice>1</voice><type>quarter</type><notehead>x</notehead></note><note><unpitched><display-step>E</display-step><display-octave>7</display-octave></unpitched><duration>64</duration><voice>1</voice><type>quarter</type><notehead>x</notehead></note><note><unpitched><display-step>E</display-step><display-octave>7</display-octave></unpitched><duration>64</duration><voice>1</voice><type>quarter</type><notehead>x</notehead></note></measure><measure number="7"><attributes/><direction placement="above"><direction-type><metronome><beat-unit>quarter</beat-unit><per-minute>82</per-minute></metronome></direction-type><sound tempo="82"/></direction><note><unpitched><display-step>E</display-step><display-octave>7</display-octave></unpitched><duration>64</duration><voice>1</voice><type>quarter</type><notehead>x</notehead></note><note><unpitched><display-step>E</display-step><display-octave>7</display-octave></unpitched><duration>64</duration><voice>1</voice><type>quarter</type><notehead>x</notehead></note><note><unpitched><display-step>E</display-step><display-octave>7</display-octave></unpitched><duration>64</duration><voice>1</voice><type>quarter</type><notehead>x</notehead></note><note><unpitched><display-step>E</display-step><display-octave>7</display-octave></unpitched><duration>64</duration><voice>1</voice><type>quarter</type><notehead>x</notehead></note></measure><measure number="8"><attributes/><direction placement="above"><direction-type><metronome><beat-unit>quarter</beat-unit><per-minute>120</per-minute></metronome></direction-type><sound tempo="120"/></direction><note><unpitched><display-step>E</display-step><display-octave>7</display-octave></unpitched><duration>64</duration><voice>1</voice><type>quarter</type><notehead>x</notehead></note><note><unpitched><display-step>E</display-step><display-octave>7</display-octave></unpitched><duration>64</duration><voice>1</voice><type>quarter</type><notehead>x</notehead></note><note><unpitched><display-step>E</display-step><display-octave>7</display-octave></unpitched><duration>64</duration><voice>1</voice><type>quarter</type><notehead>x</notehead></note><note><unpitched><display-step>E</display-step><display-octave>7</display-octave></unpitched><duration>64</duration><voice>1</voice><type>quarter</type><notehead>x</notehead></note></measure><measure number="9"><attributes/><note><unpitched><display-step>E</display-step><display-octave>7</display-octave></unpitched><duration>64</duration><voice>1</voice><type>quarter</type><notehead>x</notehead></note><note><unpitched><display-step>E</display-step><display-octave>7</display-octave></unpitched><duration>64</duration><voice>1</voice><type>quarter</type><notehead>x</notehead></note><note><unpitched><display-step>E</display-step><display-octave>7</display-octave></unpitched><duration>64</duration><voice>1</voice><type>quarter</type><notehead>x</notehead></note><note><unpitched><display-step>E</display-step><display-octave>7</display-octave></unpitched><duration>64</duration><voice>1</voice><type>quarter</type><notehead>x</notehead></note></measure><measure number="10"><attributes/><direction placement="above"><direction-type><metronome><beat-unit>quarter</beat-unit><per-minute>82</per-minute></metronome></direction-type><sound tempo="82"/></direction><note><unpitched><display-step>E</display-step><display-octave>7</display-octave></unpitched><duration>64</duration><voice>1</voice><type>quarter</type><notehead>x</notehead></note><note><unpitched><display-step>E</display-step><display-octave>7</display-octave></unpitched><duration>64</duration><voice>1</voice><type>quarter</type><notehead>x</notehead></note><note><unpitched><display-step>E</display-step><display-octave>7</display-octave></unpitched><duration>64</duration><voice>1</voice><type>quarter</type><notehead>x</notehead></note><note><unpitched><display-step>E</display-step><display-octave>7</display-octave></unpitched><duration>64</duration><voice>1</voice><type>quarter</type><notehead>x</notehead></note></measure><measure number="11"><attributes/><note><unpitched><display-step>E</display-step><display-octave>7</display-octave></unpitched><duration>64</duration><voice>1</voice><type>quarter</type><notehead>x</notehead></note><note><unpitched><display-step>E</display-step><display-octave>7</display-octave></unpitched><duration>64</duration><voice>1</voice><type>quarter</type><notehead>x</notehead></note><note><unpitched><display-step>E</display-step><display-octave>7</display-octave></unpitched><duration>64</duration><voice>1</voice><type>quarter</type><notehead>x</notehead></note><note><unpitched><display-step>E</display-step><display-octave>7</display-octave></unpitched><duration>64</duration><voice>1</voice><type>quarter</type><notehead>x</notehead></note></measure><measure number="12"><attributes/><direction placement="above"><direction-type><metronome><beat-unit>quarter</beat-unit><per-minute>120</per-minute></metronome></direction-type><sound tempo="120"/></direction><note><unpitched><display-step>E</display-step><display-octave>7</display-octave></unpitched><duration>64</duration><voice>1</voice><type>quarter</type><notehead>x</notehead></note><note><unpitched><display-step>E</display-step><display-octave>7</display-octave></unpitched><duration>64</duration><voice>1</voice><type>quarter</type><notehead>x</notehead></note><note><unpitched><display-step>E</display-step><display-octave>7</display-octave></unpitched><duration>64</duration><voice>1</voice><type>quarter</type><notehead>x</notehead></note><note><unpitched><display-step>E</display-step><display-octave>7</display-octave></unpitched><duration>64</duration><voice>1</voice><type>quarter</type><notehead>x</notehead></note></measure><measure number="13"><attributes/><direction placement="above"><direction-type><metronome><beat-unit>quarter</beat-unit><per-minute>82</per-minute></metronome></direction-type><sound tempo="82"/></direction><note><unpitched><display-step>E</display-step><display-octave>7</display-octave></unpitched><duration>64</duration><voice>1</voice><type>quarter</type><notehead>x</notehead></note><note><unpitched><display-step>E</display-step><display-octave>7</display-octave></unpitched><duration>64</duration><voice>1</voice><type>quarter</type><notehead>x</notehead></note><note><unpitched><display-step>E</display-step><display-octave>7</display-octave></unpitched><duration>64</duration><voice>1</voice><type>quarter</type><notehead>x</notehead></note><note><unpitched><display-step>E</display-step><display-octave>7</display-octave></unpitched><duration>64</duration><voice>1</voice><type>quarter</type><notehead>x</notehead></note></measure><measure number="14"><attributes/><note><unpitched><display-step>E</display-step><display-octave>7</display-octave></unpitched><duration>64</duration><voice>1</voice><type>quarter</type><notehead>x</notehead></note><note><unpitched><display-step>E</display-step><display-octave>7</display-octave></unpitched><duration>64</duration><voice>1</voice><type>quarter</type><notehead>x</notehead></note><note><unpitched><display-step>E</display-step><display-octave>7</display-octave></unpitched><duration>64</duration><voice>1</voice><type>quarter</type><notehead>x</notehead></note><note><unpitched><display-step>E</display-step><display-octave>7</display-octave></unpitched><duration>64</duration><voice>1</voice><type>quarter</type><notehead>x</notehead></note></measure><measure number="15"><attributes/><direction placement="above"><direction-type><metronome><beat-unit>quarter</beat-unit><per-minute>120</per-minute></metronome></direction-type><sound tempo="120"/></direction><note><unpitched><display-step>E</display-step><display-octave>7</display-octave></unpitched><duration>64</duration><voice>1</voice><type>quarter</type><notehead>x</notehead></note><note><unpitched><display-step>E</display-step><display-octave>7</display-octave></unpitched><duration>64</duration><voice>1</voice><type>quarter</type><notehead>x</notehead></note><note><unpitched><display-step>E</display-step><display-octave>7</display-octave></unpitched><duration>64</duration><voice>1</voice><type>quarter</type><notehead>x</notehead></note><note><unpitched><display-step>E</display-step><display-octave>7</display-octave></unpitched><duration>64</duration><voice>1</voice><type>quarter</type><notehead>x</notehead></note></measure><measure number="16"><attributes/><direction placement="above"><direction-type><metronome><beat-unit>quarter</beat-unit><per-minute>82</per-minute></metronome></direction-type><sound tempo="82"/></direction><note><unpitched><display-step>E</display-step><display-octave>7</display-octave></unpitched><duration>64</duration><voice>1</voice><type>quarter</type><notehead>x</notehead></note><note><unpitched><display-step>E</display-step><display-octave>7</display-octave></unpitched><duration>64</duration><voice>1</voice><type>quarter</type><notehead>x</notehead></note><note><unpitched><display-step>E</display-step><display-octave>7</display-octave></unpitched><duration>64</duration><voice>1</voice><type>quarter</type><notehead>x</notehead></note><note><unpitched><display-step>E</display-step><display-octave>7</display-octave></unpitched><duration>64</duration><voice>1</voice><type>quarter</type><notehead>x</notehead></note></measure><measure number="17"><attributes/><note><rest/><duration>256</duration><voice>1</voice><type>whole</type></note><barline location="right"><bar-style>light-heavy</bar-style></barline></measure><measure number="18"><attributes/><direction placement="above"><direction-type><metronome><beat-unit>eighth</beat-unit><per-minute>120</per-minute></metronome></direction-type><sound tempo="120"/></direction><note><rest/><duration>256</duration><voice>1</voice><type>whole</type></note><barline location="right"><bar-style>light-heavy</bar-style></barline></measure></part></score-partwise>